<svg xmlns="http://www.w3.org/2000/svg" version="1.1" id="Layer_1" x="0" y="0" width="490" height="90" viewBox="0" enable-background="new 0 0 490 90" xml:space="preserve">
  <path d="M111.29 64.91c-0.43 0.09-0.85 0.21-1.63 0.21 -3.44 0-6.38-1.07-8.83-3.21 -2.45-2.14-3.81-4.81-4.09-8.02 -0.24-2.5-0.36-4.69-0.36-6.57V22.39h8.2v8.9h6.71v7.06h-6.71v8.97c0 2.4 0.09 4.45 0.28 6.15 0.38 3.15 2.52 4.69 6.43 4.59V64.91z"/>
  <path d="M140.57 64.84h-8.19V48.03c0-2.73-0.07-4.76-0.21-6.07 -0.37-2.87-1.84-4.31-4.38-4.31 -2.64 0-4.1 1.44-4.38 4.31 -0.14 1.31-0.21 3.34-0.21 6.07V64.84h-8.19V13.63h8.2v18.79c1.03-1.22 2.57-1.84 4.59-1.84 3.34 0 6.16 1.01 8.44 3.04 2.28 2.03 3.64 4.64 4.06 7.84 0.19 1.56 0.28 3.74 0.28 6.57V64.84z"/>
  <path d="M171.37 50.92h-18.65c-0.05 1.37 0.07 2.59 0.35 3.68 0.66 2.68 2.33 4.03 5.01 4.03 2.35 0.05 4.68-0.68 6.99-2.19l3.46 4.95c-2.31 2.78-5.79 4.17-10.45 4.17 -3.49 0-6.5-1.04-9.04-3.11 -2.54-2.07-3.95-4.66-4.24-7.77 -0.24-2.59-0.35-4.61-0.35-6.07 0-3.01 0.12-5.42 0.35-7.2 0.42-3.11 1.88-5.69 4.38-7.74 2.49-2.05 5.46-3.07 8.9-3.07 3.44 0 6.37 1.01 8.8 3.04 2.42 2.03 3.85 4.62 4.27 7.77 0.14 1.08 0.21 3.46 0.21 7.14V50.92zM163.31 44.21c0-0.47-0.04-1.31-0.11-2.51 -0.07-1.2-0.63-2.25-1.66-3.14 -1.03-0.89-2.19-1.34-3.46-1.34 -1.27 0-2.44 0.46-3.5 1.38 -1.06 0.92-1.64 1.99-1.73 3.21 -0.05 0.75-0.07 1.55-0.07 2.4H163.31z"/>
  <path d="M215.69 64.84h-8.13V47.68c0-3.91-0.06-4.39-0.14-6 -0.14-2.82-1.34-4.24-3.74-4.24 -2.54 0-3.85 1.4-3.92 4.2 -0.07 2.8-0.11 4.75-0.11 5.83V64.84h-8.12V47.68c0-3.91-0.04-5.91-0.14-6 -0.09-2.83-1.34-4.24-3.74-4.24 -2.54 0-3.85 1.38-3.92 4.13 -0.07 2.76-0.1 4.91-0.1 6.46V64.84h-8.12V41.18c0-2.21-0.54-4.12-1.62-5.72 -0.14-0.19-0.31-0.44-0.5-0.77l6.15-4.17c0.23 0.19 0.56 0.42 0.99 0.71 0.71 0.76 1.18 1.51 1.41 2.26 1.55-1.79 3.51-2.76 5.86-2.9 3.11-0.04 5.77 1.11 7.98 3.46 1.93-2.26 4.5-3.41 7.7-3.46 3.06-0.04 5.76 0.94 8.09 2.97 2.33 2.03 3.66 4.66 3.99 7.91 0.09 1.04 0.14 3.08 0.14 6.15V64.84z"/>
  <path d="M246.12 48.03c0 2.68-0.09 4.9-0.28 6.64 -0.43 3.16-1.85 5.76-4.27 7.81 -2.42 2.05-5.36 3.07-8.79 3.07 -3.44 0-6.37-1.02-8.8-3.07 -2.42-2.05-3.83-4.65-4.2-7.81 -0.24-1.74-0.36-3.95-0.36-6.64 0-2.78 0.12-4.99 0.36-6.64 0.38-3.15 1.79-5.74 4.24-7.77 2.45-2.02 5.37-3.04 8.76-3.04 3.39 0 6.31 1.01 8.76 3.04 2.45 2.03 3.88 4.62 4.31 7.77C246.02 43.04 246.12 45.25 246.12 48.03zM237.99 48.03c0-2.78-0.08-4.79-0.24-6.04 -0.17-1.25-0.72-2.28-1.66-3.11 -0.94-0.83-2.05-1.24-3.32-1.24 -1.27 0-2.38 0.41-3.32 1.24 -0.95 0.82-1.48 1.86-1.63 3.11 -0.14 1.24-0.21 3.26-0.21 6.04s0.07 4.79 0.21 6.04 0.68 2.28 1.63 3.11c0.94 0.82 2.05 1.23 3.32 1.23 1.27 0 2.38-0.41 3.32-1.23 0.94-0.83 1.49-1.86 1.66-3.11C237.91 52.82 237.99 50.81 237.99 48.03z"/>
  <path d="M274.69 32.7L264.45 64.84h-6.71L247.5 32.7l7.63-2.19 5.01 17.1c0.61 2.31 0.92 3.96 0.92 4.94h0.14c-0.04-0.99 0.26-2.64 0.92-4.94l4.95-17.1L274.69 32.7z"/>
  <path d="M289.03 64.84h-8.19V38.35h-3.67v-7.06h11.87V64.84zM290.02 21.61c0 1.27-0.49 2.36-1.48 3.25 -0.99 0.9-2.19 1.34-3.6 1.34s-2.61-0.45-3.6-1.34c-0.99-0.89-1.48-1.98-1.48-3.25 0-1.27 0.49-2.38 1.48-3.32 0.99-0.94 2.19-1.41 3.6-1.41s2.62 0.47 3.6 1.41C289.52 19.23 290.02 20.34 290.02 21.61z"/>
  <path d="M319.93 50.92h-18.65c-0.05 1.37 0.07 2.59 0.35 3.68 0.66 2.68 2.33 4.03 5.02 4.03 2.35 0.05 4.68-0.68 6.99-2.19l3.46 4.95c-2.31 2.78-5.79 4.17-10.45 4.17 -3.49 0-6.5-1.04-9.04-3.11 -2.54-2.07-3.95-4.66-4.24-7.77 -0.23-2.59-0.35-4.61-0.35-6.07 0-3.01 0.12-5.42 0.35-7.2 0.42-3.11 1.89-5.69 4.38-7.74 2.5-2.05 5.46-3.07 8.9-3.07 3.44 0 6.37 1.01 8.79 3.04 2.43 2.03 3.85 4.62 4.28 7.77 0.14 1.08 0.21 3.46 0.21 7.14V50.92zM311.88 44.21c0-0.47-0.03-1.31-0.1-2.51 -0.07-1.2-0.62-2.25-1.66-3.14 -1.03-0.89-2.19-1.34-3.46-1.34s-2.44 0.46-3.5 1.38c-1.06 0.92-1.63 1.99-1.73 3.21 -0.05 0.75-0.07 1.55-0.07 2.4H311.88z"/>
  <path d="M351.73 61.38l-6.07 4.24c-0.81-0.48-2.34-1.85-2.4-3.04 -1.6 1.98-3.86 2.97-6.78 2.97 -3.39 0-6.3-1.02-8.72-3.07 -2.43-2.05-3.82-4.65-4.2-7.81 -0.23-1.74-0.35-3.95-0.35-6.64 0-2.64 0.12-4.83 0.35-6.57 0.38-3.15 1.78-5.76 4.2-7.81 2.42-2.05 5.33-3.07 8.72-3.07 1.89 0 3.56 0.61 5.02 1.84V13.63h8.2v41.18C349.69 56.98 350.34 59.63 351.73 61.38zM341.49 47.96c0-2.63-0.07-4.64-0.21-6 -0.14-1.23-0.66-2.25-1.55-3.07 -0.9-0.83-1.98-1.24-3.25-1.24 -1.27 0-2.36 0.41-3.28 1.24 -0.92 0.82-1.45 1.87-1.59 3.14 -0.14 1.27-0.21 3.27-0.21 6 0 2.78 0.07 4.81 0.21 6.08 0.14 1.27 0.67 2.31 1.59 3.11 0.92 0.8 2.01 1.2 3.28 1.2 1.27 0 2.36-0.4 3.25-1.2 0.89-0.8 1.41-1.85 1.56-3.14C341.42 52.77 341.49 50.74 341.49 47.96z"/>
  <path d="M382.73 48.03c0 2.88-0.09 5.09-0.28 6.64 -0.38 3.16-1.79 5.76-4.24 7.81 -2.44 2.05-5.34 3.07-8.69 3.07 -2.97 0-5.23-0.99-6.78-2.97 -0.2 1.2-1.73 2.67-2.4 3.04l-6.15-4.24c1.74-1.66 2.12-4.31 2.12-6.57V13.63h8.12v18.79c1.46-1.22 3.15-1.84 5.09-1.84 3.34 0 6.24 1.02 8.69 3.07 2.45 2.05 3.86 4.65 4.24 7.81C382.64 43.01 382.73 45.2 382.73 48.03zM374.61 48.03c0-2.92-0.08-4.97-0.25-6.14 -0.16-1.18-0.7-2.18-1.62-3 -0.92-0.83-1.99-1.24-3.21-1.24 -1.32 0-2.43 0.41-3.32 1.24 -0.9 0.82-1.41 1.85-1.56 3.07 -0.14 1.36-0.21 3.37-0.21 6 0 2.78 0.07 4.82 0.21 6.11 0.14 1.3 0.66 2.34 1.56 3.15 0.89 0.8 2 1.2 3.32 1.2 1.23 0 2.3-0.4 3.21-1.2 0.92-0.8 1.47-1.84 1.66-3.11C374.54 53.02 374.61 50.99 374.61 48.03z"/>
  <path d="M397.17 60.39c0 1.41-0.54 2.63-1.62 3.64 -1.08 1.01-2.4 1.52-3.95 1.52 -1.56 0-2.87-0.51-3.96-1.52 -1.08-1.01-1.62-2.22-1.62-3.64 0-1.41 0.54-2.62 1.62-3.64 1.08-1.01 2.4-1.52 3.96-1.52 1.56 0 2.87 0.51 3.96 1.52C396.63 57.77 397.17 58.98 397.17 60.39z"/>
  <path d="M426.94 48.03c0 2.68-0.1 4.9-0.28 6.64 -0.42 3.16-1.85 5.76-4.27 7.81 -2.42 2.05-5.36 3.07-8.79 3.07 -3.44 0-6.37-1.02-8.79-3.07 -2.42-2.05-3.83-4.65-4.2-7.81 -0.24-1.74-0.35-3.95-0.35-6.64 0-2.78 0.11-4.99 0.35-6.64 0.38-3.15 1.79-5.74 4.24-7.77 2.45-2.02 5.37-3.04 8.76-3.04 3.39 0 6.31 1.01 8.76 3.04 2.45 2.03 3.88 4.62 4.31 7.77C426.85 43.04 426.94 45.25 426.94 48.03zM418.82 48.03c0-2.78-0.08-4.79-0.25-6.04 -0.16-1.25-0.72-2.28-1.66-3.11 -0.94-0.83-2.05-1.24-3.32-1.24s-2.38 0.41-3.32 1.24c-0.94 0.82-1.48 1.86-1.62 3.11 -0.14 1.24-0.22 3.26-0.22 6.04s0.07 4.79 0.22 6.04c0.14 1.25 0.68 2.28 1.62 3.11 0.94 0.82 2.05 1.23 3.32 1.23s2.38-0.41 3.32-1.23c0.94-0.83 1.49-1.86 1.66-3.11C418.74 52.82 418.82 50.81 418.82 48.03z"/>
  <path d="M449.93 31.08l-2.26 6.92c-0.23-0.08-0.79-0.42-1.69-0.42 -1.09 0-1.98 0.31-2.68 0.92 -0.94 0.85-1.44 2.07-1.48 3.68 -0.14 2.5-0.21 4.45-0.21 5.86V64.84h-8.12V41.18c0-2.17-0.7-4.69-2.12-6.5l6.14-4.17c0.98 0.52 2.19 1.85 2.4 2.83 1.69-1.84 3.86-2.76 6.5-2.76C448.3 30.58 449.56 30.98 449.93 31.08z"/>
  <path d="M479.5 34.68c-1.06 1.32-2.05 4.45-2.05 6.57v22.74c0 2.21-0.12 4.12-0.36 5.72 -0.47 3.48-1.87 6.14-4.2 7.95 -2.33 1.81-5.26 2.72-8.79 2.72 -4.24 0-7.51-1.65-9.82-4.94 -0.14-0.19-0.31-0.45-0.5-0.78l5.44-3.6c1.41 1.6 2.85 2.4 4.31 2.4 3.63 0 5.51-2.14 5.65-6.43 0.09-1.13 0.12-2.73 0.07-3.39 -0.62 0.93-2.95 1.91-5.01 1.91 -3.4 0-6.3-1.02-8.73-3.07 -2.42-2.05-3.82-4.65-4.2-7.81 -0.24-1.74-0.35-3.95-0.35-6.64 0-2.69 0.11-4.9 0.35-6.64 0.38-3.11 1.78-5.69 4.2-7.74 2.43-2.05 5.33-3.07 8.73-3.07 2.96 0 5.22 0.97 6.78 2.9 0.18-0.95 1.44-2.54 2.4-2.97L479.5 34.68zM469.26 48.03c0-2.69-0.07-4.71-0.21-6.07 -0.14-1.23-0.66-2.25-1.56-3.07 -0.89-0.83-1.98-1.24-3.24-1.24 -1.27 0-2.37 0.41-3.29 1.24 -0.92 0.82-1.45 1.87-1.59 3.14 -0.14 1.27-0.21 3.27-0.21 6 0 2.78 0.07 4.81 0.21 6.08 0.14 1.27 0.67 2.31 1.59 3.11 0.92 0.8 2.01 1.2 3.29 1.2 1.27 0 2.35-0.4 3.25-1.2 0.9-0.8 1.41-1.85 1.56-3.14C469.19 52.77 469.26 50.76 469.26 48.03z"/>
  <path d="M86.9 37.96L86.9 37.96c0-12.24-4.15-24.08-37.2-24.08 -33.05 0-37.2 11.84-37.2 24.08l0 0c0 12.24 4.15 24.08 37.2 24.08 8.13 0 14.51-0.71 19.51-1.98 2.3 1.73 11.09 7.13 12.63 6.1 1.58-1.06 0.35-9.37-0.27-12.37C85.98 49.39 86.9 43.73 86.9 37.96zM27.26 37.96c0-6.65 2.5-13.07 22.44-13.07 19.94 0 22.44 6.43 22.44 13.08 0 6.65-2.5 13.08-22.44 13.08C29.76 51.04 27.26 44.61 27.26 37.96z"/>
</svg>